<?xml version="1.0" encoding="utf-8"?>
<!-- Generator: Adobe Illustrator 15.0.2, SVG Export Plug-In . SVG Version: 6.00 Build 0)  -->
<!DOCTYPE svg PUBLIC "-//W3C//DTD SVG 1.1//EN" "http://www.w3.org/Graphics/SVG/1.1/DTD/svg11.dtd">
<svg version="1.1" id="Layer_1" xmlns="http://www.w3.org/2000/svg" xmlns:xlink="http://www.w3.org/1999/xlink" x="0px" y="0px"
	 width="859.146px" height="175.612px" viewBox="0 0 859.146 175.612" enable-background="new 0 0 859.146 175.612"
	 xml:space="preserve">
<g>
	<path fill="#FFFFFF" d="M329.324,152.729V26.27h-26.262l-32.738,67.996L237.585,26.27h-26.264v126.458h22.847V69.801l26.084,52.165
		h18.707l27.521-54.323v85.086H329.324L329.324,152.729z M747.183,152.729h10.612V63.507h-10.612V152.729z M366.83,23.932
		c-2.459-2.758-5.787-4.138-9.983-4.138c-4.199,0-7.525,1.411-9.984,4.227c-2.459,2.82-3.687,6.269-3.687,10.344
		c0,4.078,1.228,7.527,3.687,10.343c2.459,2.819,5.785,4.228,9.984,4.228c4.196,0,7.524-1.378,9.983-4.138
		c2.458-2.757,3.688-6.234,3.688-10.433C370.519,30.169,369.288,26.693,366.83,23.932 M752.4,42.459
		c2.396,0,4.376-0.778,5.937-2.338c1.558-1.557,2.338-3.716,2.338-6.475c0-2.637-0.78-4.768-2.338-6.386
		c-1.561-1.619-3.539-2.429-5.937-2.429c-2.399,0-4.348,0.81-5.847,2.429c-1.501,1.618-2.247,3.749-2.247,6.386
		c0,2.638,0.746,4.766,2.247,6.385C748.053,41.651,750.001,42.459,752.4,42.459 M489.416,152.729h-10.974V26.27h33.279
		c7.555,0,13.879,1.079,18.978,3.238c5.096,2.158,9.202,5.009,12.322,8.544c3.117,3.539,5.366,7.496,6.745,11.872
		c1.377,4.38,2.067,8.787,2.067,13.222c0,4.919-0.63,9.295-1.89,13.132c-1.259,3.839-3.029,7.194-5.306,10.073
		c-2.279,2.878-4.919,5.367-7.914,7.466c-3,2.1-6.179,3.75-9.535,4.945l32.021,53.967h-13.13l-30.939-51.986h-25.725V152.729z
		 M489.416,91.029h21.586c10.192,0,17.657-2.465,22.396-7.397c4.735-4.934,7.106-11.553,7.106-19.854
		c0-8.421-2.371-15.1-7.106-20.032c-4.737-4.933-12.442-7.401-23.114-7.401h-20.866L489.416,91.029L489.416,91.029z M173.324,87.662
		c0,46.757-37.905,84.663-84.662,84.663C41.905,172.324,4,134.419,4,87.662C4,40.904,41.905,3,88.662,3
		C135.419,3,173.324,40.904,173.324,87.662 M107.293,79.339c0,1.812,1.469,3.282,3.282,3.282h10.354c1.813,0,3.282-1.47,3.282-3.282
		V45.293c0-1.812-1.469-3.281-3.282-3.281h-10.354c-1.813,0-3.282,1.469-3.282,3.281V79.339z M53.119,79.339
		c0,1.812,1.469,3.282,3.281,3.282h10.355c1.812,0,3.281-1.47,3.281-3.282V45.293c0-1.812-1.469-3.281-3.281-3.281H56.4
		c-1.812,0-3.281,1.469-3.281,3.281V79.339z M144.521,65.598c0-1.812-1.469-3.281-3.282-3.281h-5.26
		c-1.813,0-3.282,1.469-3.282,3.281v22.123c0,24.243-19.809,43.969-44.084,43.969c-24.274,0-43.979-19.726-43.979-43.969
		l-0.007-22.123c0-1.812-1.47-3.281-3.282-3.281h-5.261c-1.812,0-3.281,1.469-3.281,3.281l0.009,22.122
		c0,30.789,24.983,55.747,55.801,55.747s55.908-24.958,55.908-55.747V65.598L144.521,65.598z M344.795,152.729h24.104V62.068
		h-24.104V152.729z M441.389,152.729h28.242l-31.48-46.77l27.883-43.892H440.49l-15.111,26.802L408.83,62.067h-27.881l29.32,43.71
		l-30.761,46.95h25.543l17.809-29.502L441.389,152.729z M717.683,141.936c-3.479,3.479-7.736,6.357-12.771,8.635
		c-5.037,2.275-11.154,3.418-18.35,3.418c-4.677,0-9.265-0.752-13.763-2.25c-4.495-1.498-8.515-4.017-12.051-7.555
		c-3.539-3.535-6.356-8.242-8.455-14.119c-2.1-5.875-3.147-13.19-3.147-21.947c0-5.875,0.748-11.631,2.249-17.27
		c1.498-5.635,3.777-10.672,6.836-15.109c3.058-4.436,6.984-7.975,11.781-10.613c4.796-2.637,10.553-3.958,17.271-3.958
		c7.072,0,13.068,1.38,17.986,4.138c4.917,2.76,8.874,6.776,11.873,12.052V17.817h10.612v134.912h-9.893L717.683,141.936z
		 M717.143,109.555c0-12.23-2.58-21.733-7.734-28.511c-5.157-6.772-12.533-10.163-22.125-10.163c-4.678,0-8.726,0.962-12.143,2.878
		c-3.418,1.92-6.237,4.528-8.455,7.825c-2.222,3.3-3.868,7.227-4.945,11.781c-1.08,4.56-1.62,9.477-1.62,14.752
		c0,12.474,2.547,21.617,7.646,27.432c5.097,5.818,11.842,8.725,20.237,8.725c3.716,0,7.134-0.449,10.253-1.351
		c3.117-0.897,5.905-2.067,8.364-3.506c2.456-1.438,4.558-3.028,6.296-4.767c1.738-1.74,3.147-3.447,4.228-5.129L717.143,109.555
		L717.143,109.555z M831.009,151.289c-5.157,2.277-11.035,3.418-17.63,3.418c-6.717,0-12.652-1.141-17.808-3.418
		c-5.157-2.276-9.443-5.487-12.861-9.625c-3.419-4.137-5.998-9.082-7.735-14.84c-1.739-5.756-2.606-12.051-2.606-18.889
		c0-6.835,0.898-13.101,2.697-18.798c1.799-5.693,4.407-10.612,7.825-14.75c3.417-4.138,7.673-7.375,12.771-9.713
		c5.096-2.338,11.001-3.508,17.718-3.508c6.835,0,12.802,1.17,17.898,3.508s9.354,5.576,12.771,9.713
		c3.419,4.138,5.996,9.057,7.735,14.75c1.737,5.697,2.608,11.963,2.608,18.798c0,6.838-0.898,13.133-2.697,18.889
		c-1.801,5.758-4.407,10.703-7.825,14.84C840.454,145.802,836.165,149.013,831.009,151.289 M836.225,135.01
		c4.917-6.656,7.377-15.678,7.377-27.072c0-11.152-2.491-20.116-7.468-26.894c-4.976-6.772-12.562-10.163-22.755-10.163
		c-10.071,0-17.601,3.391-22.573,10.163c-4.979,6.777-7.466,15.739-7.466,26.894c0,11.396,2.456,20.416,7.375,27.072
		c4.915,6.654,12.471,9.982,22.664,9.982C823.691,144.992,831.307,141.664,836.225,135.01 M609.934,151.738
		c-2.877,1.139-5.847,1.947-8.903,2.428c-3.058,0.479-5.968,0.72-8.725,0.72c-3.12,0-6.327-0.479-9.623-1.438
		c-3.302-0.959-6.297-2.52-8.996-4.676c-2.696-2.16-4.918-4.978-6.653-8.455c-1.741-3.479-2.609-7.734-2.609-12.771
		c0-8.874,2.788-16.038,8.364-21.498c5.578-5.454,14.001-8.184,25.272-8.184c2.638,0,5.336,0.09,8.098,0.271
		c2.756,0.181,5.306,0.42,7.645,0.72c2.339,0.301,4.406,0.603,6.205,0.898c1.799,0.301,3.176,0.511,4.138,0.63v-7.915
		c0-7.794-2.222-13.371-6.655-16.729c-4.438-3.356-10.792-5.037-19.068-5.037c-5.877,0-10.882,0.75-15.021,2.249
		c-4.136,1.501-7.405,2.909-9.803,4.227L570,68.903c2.276-1.318,5.995-2.906,11.154-4.767c5.152-1.857,11.81-2.788,19.967-2.788
		c10.55,0,18.734,2.491,24.553,7.465c5.816,4.978,8.725,12.563,8.725,22.755v61.16h-9.714l-0.359-12.771
		c-1.799,2.879-3.93,5.279-6.385,7.195C615.479,149.072,612.812,150.602,609.934,151.738 M606.876,143.553
		c3.356-1.438,6.324-3.354,8.905-5.755c2.577-2.397,4.613-5.128,6.114-8.185c1.498-3.06,2.249-6.207,2.249-9.445v-10.613
		c-0.962-0.236-2.311-0.507-4.047-0.809c-1.739-0.297-3.75-0.568-6.026-0.811c-2.278-0.238-4.737-0.449-7.374-0.629
		c-2.641-0.181-5.219-0.271-7.735-0.271c-8.877,0-15.083,1.861-18.618,5.576c-3.537,3.719-5.307,8.696-5.307,14.933
		c0,6.356,1.979,10.974,5.937,13.851c3.957,2.879,9.111,4.315,15.472,4.315C600.041,145.711,603.517,144.992,606.876,143.553"/>
</g>
</svg>
